<svg xmlns="http://www.w3.org/2000/svg" version="1.1" xmlns:xlink="http://www.w3.org/1999/xlink" xmlns:svgjs="http://svgjs.dev/svgjs" width="1440" height="560" preserveAspectRatio="none" viewBox="0 0 1440 560"><g mask="url(&quot;#SvgjsMask1251&quot;)" fill="none"><rect width="1440" height="560" x="0" y="0" fill="url(&quot;#SvgjsLinearGradient1252&quot;)"></rect><path d="M431.0372713377229 383.95364269281544L477.0085695314412 463.5782668542347 556.6331936928605 417.6069686605165 510.6618954991422 337.98234449909717z" fill="rgba(28, 83, 142, 0.4)" class="triangle-float2"></path><path d="M846.57 469.58 a152.03 152.03 0 1 0 304.06 0 a152.03 152.03 0 1 0 -304.06 0z" fill="rgba(28, 83, 142, 0.4)" class="triangle-float2"></path><path d="M856.0719193508183 144.25896052548228L981.4997612636982 101.07069107954692 812.883649904883 18.831118612602396z" fill="rgba(28, 83, 142, 0.4)" class="triangle-float2"></path><path d="M1290.468339789652 65.93863044866765L1418.8964549971597 88.58397224128635 1441.5417967897786-39.84414296622148 1313.1136815822706-62.48948475884018z" fill="rgba(28, 83, 142, 0.4)" class="triangle-float3"></path><path d="M1199.392,285.899C1227.655,285.261,1250.663,265.302,1264.184,240.475C1277.068,216.817,1278.161,188.69,1265.192,165.078C1251.713,140.538,1227.358,121.168,1199.392,122.51C1173.06,123.774,1156.902,148.095,1143.693,170.909C1130.443,193.793,1117.804,219.719,1129.331,243.517C1142.084,269.845,1170.145,286.559,1199.392,285.899" fill="rgba(28, 83, 142, 0.4)" class="triangle-float1"></path><path d="M883.885,198.866C915.376,200.17,948.994,191.958,965.351,165.016C982.2,137.263,976.694,101.865,959.493,74.329C943.327,48.449,914.397,34.946,883.885,34.6C852.688,34.246,820.668,45.459,805.249,72.581C789.972,99.452,796.981,132.483,813.319,158.722C828.651,183.344,854.905,197.666,883.885,198.866" fill="rgba(28, 83, 142, 0.4)" class="triangle-float1"></path><path d="M-53.65466148557244 189.22708403623722L57.10726475627151 308.0047080000525 175.88488872008685 197.2427817582086 65.12296247824287 78.46515779439326z" fill="rgba(28, 83, 142, 0.4)" class="triangle-float1"></path><path d="M604.602,561.858C621.235,560.878,634.711,550.732,643.998,536.899C654.85,520.736,666.111,501.111,656.903,483.958C647.414,466.281,624.639,462.491,604.602,463.508C586.534,464.425,570.239,473.433,560.757,488.84C550.754,505.093,546.426,525.707,556.251,542.069C565.86,558.071,585.969,562.956,604.602,561.858" fill="rgba(28, 83, 142, 0.4)" class="triangle-float2"></path><path d="M481.36 85.76 a101.5 101.5 0 1 0 203 0 a101.5 101.5 0 1 0 -203 0z" fill="rgba(28, 83, 142, 0.4)" class="triangle-float1"></path><path d="M1154.01 155.45 a165.55 165.55 0 1 0 331.1 0 a165.55 165.55 0 1 0 -331.1 0z" fill="rgba(28, 83, 142, 0.4)" class="triangle-float3"></path><path d="M992.021,661.663C1030.624,663.093,1065.45,638.754,1084.042,604.894C1101.96,572.262,1098.656,533.185,1080.375,500.755C1061.726,467.672,1029.986,442.618,992.021,441.652C952.457,440.645,913.666,460.879,895.518,496.05C878.544,528.947,892.46,566.503,911.097,598.487C929.563,630.177,955.368,660.305,992.021,661.663" fill="rgba(28, 83, 142, 0.4)" class="triangle-float2"></path><path d="M753.54 33.6 a138.23 138.23 0 1 0 276.46 0 a138.23 138.23 0 1 0 -276.46 0z" fill="rgba(28, 83, 142, 0.4)" class="triangle-float3"></path></g><defs><mask id="SvgjsMask1251"><rect width="1440" height="560" fill="#ffffff"></rect></mask><linearGradient x1="84.72%" y1="-39.29%" x2="15.28%" y2="139.29%" gradientUnits="userSpaceOnUse" id="SvgjsLinearGradient1252"><stop stop-color="#0e2a47" offset="0"></stop><stop stop-color="rgba(218, 205, 216, 1)" offset="1"></stop></linearGradient><style>
                @keyframes float1 {
                    0%{transform: translate(0, 0)}
                    50%{transform: translate(-10px, 0)}
                    100%{transform: translate(0, 0)}
                }

                .triangle-float1 {
                    animation: float1 5s infinite;
                }

                @keyframes float2 {
                    0%{transform: translate(0, 0)}
                    50%{transform: translate(-5px, -5px)}
                    100%{transform: translate(0, 0)}
                }

                .triangle-float2 {
                    animation: float2 4s infinite;
                }

                @keyframes float3 {
                    0%{transform: translate(0, 0)}
                    50%{transform: translate(0, -10px)}
                    100%{transform: translate(0, 0)}
                }

                .triangle-float3 {
                    animation: float3 6s infinite;
                }
            </style></defs></svg>