<svg xmlns="http://www.w3.org/2000/svg" version="1.1" xmlns:xlink="http://www.w3.org/1999/xlink" xmlns:svgjs="http://svgjs.dev/svgjs" width="1440" height="560" preserveAspectRatio="none" viewBox="0 0 1440 560"><g mask="url(&quot;#SvgjsMask1509&quot;)" fill="none"><rect width="1440" height="560" x="0" y="0" fill="url(&quot;#SvgjsLinearGradient1510&quot;)"></rect><path d="M-101.08 341.25L-101.08 341.25" stroke="#132e65" stroke-width="1.5"></path><path d="M-101.08 341.25L75.09 354.9" stroke="#132e65" stroke-width="1.5"></path><path d="M-101.08 341.25L-92.89 562.21" stroke="#132e65" stroke-width="1.5"></path><path d="M-101.08 341.25L62.25 561.51" stroke="#132e65" stroke-width="1.5"></path><path d="M-101.08 341.25L-52.87 669.57" stroke="#132e65" stroke-width="1.5"></path><path d="M-101.08 341.25L259.17 346.17" stroke="#132e65" stroke-width="1.5"></path><path d="M-92.89 562.21L-92.89 562.21" stroke="#132e65" stroke-width="1.5"></path><path d="M-92.89 562.21L-52.87 669.57" stroke="#132e65" stroke-width="1.5"></path><path d="M-92.89 562.21L62.25 561.51" stroke="#132e65" stroke-width="1.5"></path><path d="M-52.87 669.57L-52.87 669.57" stroke="#132e65" stroke-width="1.5"></path><path d="M-52.87 669.57L69.84 669.67" stroke="#132e65" stroke-width="1.5"></path><path d="M75.09 354.9L75.09 354.9" stroke="#132e65" stroke-width="1.5"></path><path d="M75.09 354.9L259.17 346.17" stroke="#132e65" stroke-width="1.5"></path><path d="M75.09 354.9L62.25 561.51" stroke="#132e65" stroke-width="1.5"></path><path d="M75.09 354.9L217.54 524.87" stroke="#132e65" stroke-width="1.5"></path><path d="M62.25 561.51L62.25 561.51" stroke="#132e65" stroke-width="1.5"></path><path d="M62.25 561.51L69.84 669.67" stroke="#132e65" stroke-width="1.5"></path><path d="M69.84 669.67L69.84 669.67" stroke="#132e65" stroke-width="1.5"></path><path d="M69.84 669.67L245.26 651.79" stroke="#132e65" stroke-width="1.5"></path><path d="M259.17 346.17L259.17 346.17" stroke="#132e65" stroke-width="1.5"></path><path d="M259.17 346.17L404.19 347.41" stroke="#132e65" stroke-width="1.5"></path><path d="M259.17 346.17L217.54 524.87" stroke="#132e65" stroke-width="1.5"></path><path d="M259.17 346.17L359.15 562.13" stroke="#132e65" stroke-width="1.5"></path><path d="M259.17 346.17L514.4 354.93" stroke="#132e65" stroke-width="1.5"></path><path d="M217.54 524.87L217.54 524.87" stroke="#132e65" stroke-width="1.5"></path><path d="M217.54 524.87L245.26 651.79" stroke="#132e65" stroke-width="1.5"></path><path d="M217.54 524.87L359.15 562.13" stroke="#132e65" stroke-width="1.5"></path><path d="M217.54 524.87L62.25 561.51" stroke="#132e65" stroke-width="1.5"></path><path d="M217.54 524.87L69.84 669.67" stroke="#132e65" stroke-width="1.5"></path><path d="M245.26 651.79L245.26 651.79" stroke="#132e65" stroke-width="1.5"></path><path d="M245.26 651.79L358.59 703.14" stroke="#132e65" stroke-width="1.5"></path><path d="M404.19 347.41L404.19 347.41" stroke="#132e65" stroke-width="1.5"></path><path d="M404.19 347.41L514.4 354.93" stroke="#132e65" stroke-width="1.5"></path><path d="M359.15 562.13L359.15 562.13" stroke="#132e65" stroke-width="1.5"></path><path d="M359.15 562.13L358.59 703.14" stroke="#132e65" stroke-width="1.5"></path><path d="M358.59 703.14L358.59 703.14" stroke="#132e65" stroke-width="1.5"></path><path d="M358.59 703.14L527.81 641.33" stroke="#132e65" stroke-width="1.5"></path><path d="M358.59 703.14L217.54 524.87" stroke="#132e65" stroke-width="1.5"></path><path d="M358.59 703.14L528.81 547.87" stroke="#132e65" stroke-width="1.5"></path><path d="M514.4 354.93L514.4 354.93" stroke="#132e65" stroke-width="1.5"></path><path d="M514.4 354.93L678.18 408.75" stroke="#132e65" stroke-width="1.5"></path><path d="M514.4 354.93L528.81 547.87" stroke="#132e65" stroke-width="1.5"></path><path d="M514.4 354.93L709.35 243.55" stroke="#132e65" stroke-width="1.5"></path><path d="M514.4 354.93L693.08 498.49" stroke="#132e65" stroke-width="1.5"></path><path d="M528.81 547.87L528.81 547.87" stroke="#132e65" stroke-width="1.5"></path><path d="M528.81 547.87L527.81 641.33" stroke="#132e65" stroke-width="1.5"></path><path d="M528.81 547.87L359.15 562.13" stroke="#132e65" stroke-width="1.5"></path><path d="M528.81 547.87L693.08 498.49" stroke="#132e65" stroke-width="1.5"></path><path d="M528.81 547.87L678.18 408.75" stroke="#132e65" stroke-width="1.5"></path><path d="M527.81 641.33L527.81 641.33" stroke="#132e65" stroke-width="1.5"></path><path d="M527.81 641.33L702.91 670.44" stroke="#132e65" stroke-width="1.5"></path><path d="M709.35 243.55L709.35 243.55" stroke="#132e65" stroke-width="1.5"></path><path d="M709.35 243.55L858.28 252.99" stroke="#132e65" stroke-width="1.5"></path><path d="M709.35 243.55L678.18 408.75" stroke="#132e65" stroke-width="1.5"></path><path d="M709.35 243.55L825.89 411.74" stroke="#132e65" stroke-width="1.5"></path><path d="M709.35 243.55L855.73 93.64" stroke="#132e65" stroke-width="1.5"></path><path d="M678.18 408.75L678.18 408.75" stroke="#132e65" stroke-width="1.5"></path><path d="M678.18 408.75L693.08 498.49" stroke="#132e65" stroke-width="1.5"></path><path d="M678.18 408.75L825.89 411.74" stroke="#132e65" stroke-width="1.5"></path><path d="M693.08 498.49L693.08 498.49" stroke="#132e65" stroke-width="1.5"></path><path d="M693.08 498.49L825.89 411.74" stroke="#132e65" stroke-width="1.5"></path><path d="M693.08 498.49L843.91 560.91" stroke="#132e65" stroke-width="1.5"></path><path d="M693.08 498.49L702.91 670.44" stroke="#132e65" stroke-width="1.5"></path><path d="M693.08 498.49L795.36 678.51" stroke="#132e65" stroke-width="1.5"></path><path d="M702.91 670.44L702.91 670.44" stroke="#132e65" stroke-width="1.5"></path><path d="M702.91 670.44L795.36 678.51" stroke="#132e65" stroke-width="1.5"></path><path d="M702.91 670.44L843.91 560.91" stroke="#132e65" stroke-width="1.5"></path><path d="M702.91 670.44L528.81 547.87" stroke="#132e65" stroke-width="1.5"></path><path d="M702.91 670.44L678.18 408.75" stroke="#132e65" stroke-width="1.5"></path><path d="M855.73 93.64L855.73 93.64" stroke="#132e65" stroke-width="1.5"></path><path d="M855.73 93.64L994.33 43.73" stroke="#132e65" stroke-width="1.5"></path><path d="M855.73 93.64L858.28 252.99" stroke="#132e65" stroke-width="1.5"></path><path d="M858.28 252.99L858.28 252.99" stroke="#132e65" stroke-width="1.5"></path><path d="M858.28 252.99L1009.68 254.06" stroke="#132e65" stroke-width="1.5"></path><path d="M858.28 252.99L825.89 411.74" stroke="#132e65" stroke-width="1.5"></path><path d="M858.28 252.99L1011.4 362.73" stroke="#132e65" stroke-width="1.5"></path><path d="M825.89 411.74L825.89 411.74" stroke="#132e65" stroke-width="1.5"></path><path d="M825.89 411.74L843.91 560.91" stroke="#132e65" stroke-width="1.5"></path><path d="M843.91 560.91L843.91 560.91" stroke="#132e65" stroke-width="1.5"></path><path d="M843.91 560.91L795.36 678.51" stroke="#132e65" stroke-width="1.5"></path><path d="M843.91 560.91L966.95 517.91" stroke="#132e65" stroke-width="1.5"></path><path d="M795.36 678.51L795.36 678.51" stroke="#132e65" stroke-width="1.5"></path><path d="M795.36 678.51L997.59 666.01" stroke="#132e65" stroke-width="1.5"></path><path d="M945.72 -60.47L945.72 -60.47" stroke="#132e65" stroke-width="1.5"></path><path d="M945.72 -60.47L994.33 43.73" stroke="#132e65" stroke-width="1.5"></path><path d="M945.72 -60.47L1122.97 -78.87" stroke="#132e65" stroke-width="1.5"></path><path d="M945.72 -60.47L855.73 93.64" stroke="#132e65" stroke-width="1.5"></path><path d="M945.72 -60.47L1145.99 97.45" stroke="#132e65" stroke-width="1.5"></path><path d="M945.72 -60.47L1009.68 254.06" stroke="#132e65" stroke-width="1.5"></path><path d="M994.33 43.73L994.33 43.73" stroke="#132e65" stroke-width="1.5"></path><path d="M994.33 43.73L1145.99 97.45" stroke="#132e65" stroke-width="1.5"></path><path d="M994.33 43.73L1122.97 -78.87" stroke="#132e65" stroke-width="1.5"></path><path d="M1009.68 254.06L1009.68 254.06" stroke="#132e65" stroke-width="1.5"></path><path d="M1009.68 254.06L1114.62 247.28" stroke="#132e65" stroke-width="1.5"></path><path d="M1009.68 254.06L1011.4 362.73" stroke="#132e65" stroke-width="1.5"></path><path d="M1009.68 254.06L1088.02 366.55" stroke="#132e65" stroke-width="1.5"></path><path d="M1011.4 362.73L1011.4 362.73" stroke="#132e65" stroke-width="1.5"></path><path d="M1011.4 362.73L1088.02 366.55" stroke="#132e65" stroke-width="1.5"></path><path d="M1011.4 362.73L1114.62 247.28" stroke="#132e65" stroke-width="1.5"></path><path d="M966.95 517.91L966.95 517.91" stroke="#132e65" stroke-width="1.5"></path><path d="M966.95 517.91L997.59 666.01" stroke="#132e65" stroke-width="1.5"></path><path d="M997.59 666.01L997.59 666.01" stroke="#132e65" stroke-width="1.5"></path><path d="M997.59 666.01L1096.06 660.05" stroke="#132e65" stroke-width="1.5"></path><path d="M997.59 666.01L843.91 560.91" stroke="#132e65" stroke-width="1.5"></path><path d="M1122.97 -78.87L1122.97 -78.87" stroke="#132e65" stroke-width="1.5"></path><path d="M1122.97 -78.87L1271.19 -65.83" stroke="#132e65" stroke-width="1.5"></path><path d="M1145.99 97.45L1145.99 97.45" stroke="#132e65" stroke-width="1.5"></path><path d="M1145.99 97.45L1241.7 209.29" stroke="#132e65" stroke-width="1.5"></path><path d="M1145.99 97.45L1114.62 247.28" stroke="#132e65" stroke-width="1.5"></path><path d="M1145.99 97.45L1310.2 94.66" stroke="#132e65" stroke-width="1.5"></path><path d="M1114.62 247.28L1114.62 247.28" stroke="#132e65" stroke-width="1.5"></path><path d="M1114.62 247.28L1088.02 366.55" stroke="#132e65" stroke-width="1.5"></path><path d="M1114.62 247.28L1241.7 209.29" stroke="#132e65" stroke-width="1.5"></path><path d="M1088.02 366.55L1088.02 366.55" stroke="#132e65" stroke-width="1.5"></path><path d="M1125.61 501.87L1125.61 501.87" stroke="#132e65" stroke-width="1.5"></path><path d="M1125.61 501.87L1088.02 366.55" stroke="#132e65" stroke-width="1.5"></path><path d="M1125.61 501.87L1245.76 399.85" stroke="#132e65" stroke-width="1.5"></path><path d="M1125.61 501.87L966.95 517.91" stroke="#132e65" stroke-width="1.5"></path><path d="M1125.61 501.87L1096.06 660.05" stroke="#132e65" stroke-width="1.5"></path><path d="M1096.06 660.05L1096.06 660.05" stroke="#132e65" stroke-width="1.5"></path><path d="M1271.19 -65.83L1271.19 -65.83" stroke="#132e65" stroke-width="1.5"></path><path d="M1271.19 -65.83L1403.59 -50.18" stroke="#132e65" stroke-width="1.5"></path><path d="M1271.19 -65.83L1310.2 94.66" stroke="#132e65" stroke-width="1.5"></path><path d="M1271.19 -65.83L1429.76 41.04" stroke="#132e65" stroke-width="1.5"></path><path d="M1271.19 -65.83L1145.99 97.45" stroke="#132e65" stroke-width="1.5"></path><path d="M1310.2 94.66L1310.2 94.66" stroke="#132e65" stroke-width="1.5"></path><path d="M1310.2 94.66L1429.76 41.04" stroke="#132e65" stroke-width="1.5"></path><path d="M1310.2 94.66L1241.7 209.29" stroke="#132e65" stroke-width="1.5"></path><path d="M1310.2 94.66L1403.59 -50.18" stroke="#132e65" stroke-width="1.5"></path><path d="M1241.7 209.29L1241.7 209.29" stroke="#132e65" stroke-width="1.5"></path><path d="M1245.76 399.85L1245.76 399.85" stroke="#132e65" stroke-width="1.5"></path><path d="M1245.76 399.85L1088.02 366.55" stroke="#132e65" stroke-width="1.5"></path><path d="M1245.76 399.85L1304.56 559.75" stroke="#132e65" stroke-width="1.5"></path><path d="M1245.76 399.85L1241.7 209.29" stroke="#132e65" stroke-width="1.5"></path><path d="M1245.76 399.85L1444.44 370.29" stroke="#132e65" stroke-width="1.5"></path><path d="M1304.56 559.75L1304.56 559.75" stroke="#132e65" stroke-width="1.5"></path><path d="M1304.56 559.75L1241.95 641.6" stroke="#132e65" stroke-width="1.5"></path><path d="M1304.56 559.75L1427.13 532.29" stroke="#132e65" stroke-width="1.5"></path><path d="M1304.56 559.75L1125.61 501.87" stroke="#132e65" stroke-width="1.5"></path><path d="M1304.56 559.75L1439.57 700.41" stroke="#132e65" stroke-width="1.5"></path><path d="M1304.56 559.75L1096.06 660.05" stroke="#132e65" stroke-width="1.5"></path><path d="M1241.95 641.6L1241.95 641.6" stroke="#132e65" stroke-width="1.5"></path><path d="M1241.95 641.6L1096.06 660.05" stroke="#132e65" stroke-width="1.5"></path><path d="M1403.59 -50.18L1403.59 -50.18" stroke="#132e65" stroke-width="1.5"></path><path d="M1403.59 -50.18L1429.76 41.04" stroke="#132e65" stroke-width="1.5"></path><path d="M1403.59 -50.18L1579.55 -67.03" stroke="#132e65" stroke-width="1.5"></path><path d="M1429.76 41.04L1429.76 41.04" stroke="#132e65" stroke-width="1.5"></path><path d="M1429.76 41.04L1603.45 76.9" stroke="#132e65" stroke-width="1.5"></path><path d="M1445.63 237.94L1445.63 237.94" stroke="#132e65" stroke-width="1.5"></path><path d="M1445.63 237.94L1567.72 229.93" stroke="#132e65" stroke-width="1.5"></path><path d="M1445.63 237.94L1444.44 370.29" stroke="#132e65" stroke-width="1.5"></path><path d="M1444.44 370.29L1444.44 370.29" stroke="#132e65" stroke-width="1.5"></path><path d="M1444.44 370.29L1579.88 384.1" stroke="#132e65" stroke-width="1.5"></path><path d="M1444.44 370.29L1427.13 532.29" stroke="#132e65" stroke-width="1.5"></path><path d="M1444.44 370.29L1567.72 229.93" stroke="#132e65" stroke-width="1.5"></path><path d="M1444.44 370.29L1573.92 514.02" stroke="#132e65" stroke-width="1.5"></path><path d="M1427.13 532.29L1427.13 532.29" stroke="#132e65" stroke-width="1.5"></path><path d="M1427.13 532.29L1573.92 514.02" stroke="#132e65" stroke-width="1.5"></path><path d="M1439.57 700.41L1439.57 700.41" stroke="#132e65" stroke-width="1.5"></path><path d="M1439.57 700.41L1586.08 674.8" stroke="#132e65" stroke-width="1.5"></path><path d="M1439.57 700.41L1427.13 532.29" stroke="#132e65" stroke-width="1.5"></path><path d="M1439.57 700.41L1241.95 641.6" stroke="#132e65" stroke-width="1.5"></path><path d="M1579.55 -67.03L1579.55 -67.03" stroke="#132e65" stroke-width="1.5"></path><path d="M1579.55 -67.03L1603.45 76.9" stroke="#132e65" stroke-width="1.5"></path><path d="M1579.55 -67.03L1429.76 41.04" stroke="#132e65" stroke-width="1.5"></path><path d="M1579.55 -67.03L1567.72 229.93" stroke="#132e65" stroke-width="1.5"></path><path d="M1603.45 76.9L1603.45 76.9" stroke="#132e65" stroke-width="1.5"></path><path d="M1603.45 76.9L1567.72 229.93" stroke="#132e65" stroke-width="1.5"></path><path d="M1603.45 76.9L1445.63 237.94" stroke="#132e65" stroke-width="1.5"></path><path d="M1603.45 76.9L1403.59 -50.18" stroke="#132e65" stroke-width="1.5"></path><path d="M1567.72 229.93L1567.72 229.93" stroke="#132e65" stroke-width="1.5"></path><path d="M1567.72 229.93L1579.88 384.1" stroke="#132e65" stroke-width="1.5"></path><path d="M1579.88 384.1L1579.88 384.1" stroke="#132e65" stroke-width="1.5"></path><path d="M1579.88 384.1L1573.92 514.02" stroke="#132e65" stroke-width="1.5"></path><path d="M1579.88 384.1L1445.63 237.94" stroke="#132e65" stroke-width="1.5"></path><path d="M1573.92 514.02L1573.92 514.02" stroke="#132e65" stroke-width="1.5"></path><path d="M1573.92 514.02L1586.08 674.8" stroke="#132e65" stroke-width="1.5"></path><path d="M1586.08 674.8L1586.08 674.8" stroke="#132e65" stroke-width="1.5"></path><path d="M1586.08 674.8L1427.13 532.29" stroke="#132e65" stroke-width="1.5"></path><circle r="5" cx="-101.08" cy="341.25" fill="#132e65"></circle><circle r="5" cx="-92.89" cy="562.21" fill="#132e65"></circle><circle r="5" cx="-52.87" cy="669.57" fill="#132e65"></circle><circle r="5" cx="75.09" cy="354.9" fill="#132e65"></circle><circle r="5" cx="62.25" cy="561.51" fill="#132e65"></circle><circle r="5" cx="69.84" cy="669.67" fill="#132e65"></circle><circle r="5" cx="259.17" cy="346.17" fill="#132e65"></circle><circle r="5" cx="217.54" cy="524.87" fill="#132e65"></circle><circle r="5" cx="245.26" cy="651.79" fill="#132e65"></circle><circle r="5" cx="404.19" cy="347.41" fill="#132e65"></circle><circle r="5" cx="359.15" cy="562.13" fill="#132e65"></circle><circle r="5" cx="358.59" cy="703.14" fill="#132e65"></circle><circle r="5" cx="514.4" cy="354.93" fill="#132e65"></circle><circle r="5" cx="528.81" cy="547.87" fill="#132e65"></circle><circle r="5" cx="527.81" cy="641.33" fill="#132e65"></circle><circle r="5" cx="709.35" cy="243.55" fill="#132e65"></circle><circle r="5" cx="678.18" cy="408.75" fill="#132e65"></circle><circle r="5" cx="693.08" cy="498.49" fill="#132e65"></circle><circle r="5" cx="702.91" cy="670.44" fill="#132e65"></circle><circle r="5" cx="855.73" cy="93.64" fill="#132e65"></circle><circle r="5" cx="858.28" cy="252.99" fill="#132e65"></circle><circle r="5" cx="825.89" cy="411.74" fill="#132e65"></circle><circle r="5" cx="843.91" cy="560.91" fill="#132e65"></circle><circle r="5" cx="795.36" cy="678.51" fill="#132e65"></circle><circle r="5" cx="945.72" cy="-60.47" fill="#132e65"></circle><circle r="5" cx="994.33" cy="43.73" fill="#132e65"></circle><circle r="5" cx="1009.68" cy="254.06" fill="#132e65"></circle><circle r="5" cx="1011.4" cy="362.73" fill="#132e65"></circle><circle r="5" cx="966.95" cy="517.91" fill="#132e65"></circle><circle r="5" cx="997.59" cy="666.01" fill="#132e65"></circle><circle r="5" cx="1122.97" cy="-78.87" fill="#132e65"></circle><circle r="5" cx="1145.99" cy="97.45" fill="#132e65"></circle><circle r="5" cx="1114.62" cy="247.28" fill="#132e65"></circle><circle r="5" cx="1088.02" cy="366.55" fill="#132e65"></circle><circle r="5" cx="1125.61" cy="501.87" fill="#132e65"></circle><circle r="5" cx="1096.06" cy="660.05" fill="#132e65"></circle><circle r="5" cx="1271.19" cy="-65.83" fill="#132e65"></circle><circle r="5" cx="1310.2" cy="94.66" fill="#132e65"></circle><circle r="5" cx="1241.7" cy="209.29" fill="#132e65"></circle><circle r="5" cx="1245.76" cy="399.85" fill="#132e65"></circle><circle r="5" cx="1304.56" cy="559.75" fill="#132e65"></circle><circle r="5" cx="1241.95" cy="641.6" fill="#132e65"></circle><circle r="5" cx="1403.59" cy="-50.18" fill="#132e65"></circle><circle r="5" cx="1429.76" cy="41.04" fill="#132e65"></circle><circle r="5" cx="1445.63" cy="237.94" fill="#132e65"></circle><circle r="5" cx="1444.44" cy="370.29" fill="#132e65"></circle><circle r="5" cx="1427.13" cy="532.29" fill="#132e65"></circle><circle r="5" cx="1439.57" cy="700.41" fill="#132e65"></circle><circle r="5" cx="1579.55" cy="-67.03" fill="#132e65"></circle><circle r="5" cx="1603.45" cy="76.9" fill="#132e65"></circle><circle r="5" cx="1567.72" cy="229.93" fill="#132e65"></circle><circle r="5" cx="1579.88" cy="384.1" fill="#132e65"></circle><circle r="5" cx="1573.92" cy="514.02" fill="#132e65"></circle><circle r="5" cx="1586.08" cy="674.8" fill="#132e65"></circle><path d="M-50.07 532.73L-50.07 532.73" stroke="hsl(228.5, 77.2%, 51.5%)" stroke-width="1.5"></path><path d="M-50.07 532.73L40.95 527.57" stroke="hsl(228.5, 77.2%, 51.5%)" stroke-width="1.5"></path><path d="M-50.07 532.73L-94.56 688.26" stroke="hsl(228.5, 77.2%, 51.5%)" stroke-width="1.5"></path><path d="M-50.07 532.73L89.35 689.67" stroke="hsl(228.5, 77.2%, 51.5%)" stroke-width="1.5"></path><path d="M-94.56 688.26L-94.56 688.26" stroke="hsl(228.5, 77.2%, 51.5%)" stroke-width="1.5"></path><path d="M-94.56 688.26L89.35 689.67" stroke="hsl(228.5, 77.2%, 51.5%)" stroke-width="1.5"></path><path d="M-94.56 688.26L40.95 527.57" stroke="hsl(228.5, 77.2%, 51.5%)" stroke-width="1.5"></path><path d="M-94.56 688.26L207.64 666.55" stroke="hsl(228.5, 77.2%, 51.5%)" stroke-width="1.5"></path><path d="M-94.56 688.26L251.92 539.96" stroke="hsl(228.5, 77.2%, 51.5%)" stroke-width="1.5"></path><path d="M40.95 527.57L40.95 527.57" stroke="hsl(228.5, 77.2%, 51.5%)" stroke-width="1.5"></path><path d="M40.95 527.57L89.35 689.67" stroke="hsl(228.5, 77.2%, 51.5%)" stroke-width="1.5"></path><path d="M251.92 539.96L251.92 539.96" stroke="hsl(228.5, 77.2%, 51.5%)" stroke-width="1.5"></path><path d="M251.92 539.96L369.69 527.59" stroke="hsl(228.5, 77.2%, 51.5%)" stroke-width="1.5"></path><path d="M251.92 539.96L207.64 666.55" stroke="hsl(228.5, 77.2%, 51.5%)" stroke-width="1.5"></path><path d="M251.92 539.96L343.42 663.86" stroke="hsl(228.5, 77.2%, 51.5%)" stroke-width="1.5"></path><path d="M251.92 539.96L40.95 527.57" stroke="hsl(228.5, 77.2%, 51.5%)" stroke-width="1.5"></path><path d="M251.92 539.96L89.35 689.67" stroke="hsl(228.5, 77.2%, 51.5%)" stroke-width="1.5"></path><path d="M251.92 539.96L517.12 491.31" stroke="hsl(228.5, 77.2%, 51.5%)" stroke-width="1.5"></path><path d="M343.42 663.86L343.42 663.86" stroke="hsl(228.5, 77.2%, 51.5%)" stroke-width="1.5"></path><path d="M343.42 663.86L207.64 666.55" stroke="hsl(228.5, 77.2%, 51.5%)" stroke-width="1.5"></path><path d="M343.42 663.86L369.69 527.59" stroke="hsl(228.5, 77.2%, 51.5%)" stroke-width="1.5"></path><path d="M343.42 663.86L540.78 638.7" stroke="hsl(228.5, 77.2%, 51.5%)" stroke-width="1.5"></path><path d="M343.42 663.86L517.12 491.31" stroke="hsl(228.5, 77.2%, 51.5%)" stroke-width="1.5"></path><path d="M677.09 526.14L677.09 526.14" stroke="hsl(228.5, 77.2%, 51.5%)" stroke-width="1.5"></path><path d="M677.09 526.14L677.4 411.83" stroke="hsl(228.5, 77.2%, 51.5%)" stroke-width="1.5"></path><path d="M677.09 526.14L661.96 657.55" stroke="hsl(228.5, 77.2%, 51.5%)" stroke-width="1.5"></path><path d="M677.09 526.14L821.31 544.75" stroke="hsl(228.5, 77.2%, 51.5%)" stroke-width="1.5"></path><path d="M677.09 526.14L517.12 491.31" stroke="hsl(228.5, 77.2%, 51.5%)" stroke-width="1.5"></path><path d="M677.09 526.14L804.08 410.57" stroke="hsl(228.5, 77.2%, 51.5%)" stroke-width="1.5"></path><path d="M1290.99 523.57L1290.99 523.57" stroke="hsl(228.5, 77.2%, 51.5%)" stroke-width="1.5"></path><path d="M1290.99 523.57L1261.15 659.54" stroke="hsl(228.5, 77.2%, 51.5%)" stroke-width="1.5"></path><path d="M1290.99 523.57L1286.54 382.4" stroke="hsl(228.5, 77.2%, 51.5%)" stroke-width="1.5"></path><path d="M1290.99 523.57L1133.97 515.44" stroke="hsl(228.5, 77.2%, 51.5%)" stroke-width="1.5"></path><path d="M1550.68 348.44L1550.68 348.44" stroke="hsl(228.5, 77.2%, 51.5%)" stroke-width="1.5"></path><path d="M1550.68 348.44L1427.55 373.13" stroke="hsl(228.5, 77.2%, 51.5%)" stroke-width="1.5"></path><path d="M1550.68 348.44L1556.46 491.24" stroke="hsl(228.5, 77.2%, 51.5%)" stroke-width="1.5"></path><path d="M1550.68 348.44L1612.24 214.75" stroke="hsl(228.5, 77.2%, 51.5%)" stroke-width="1.5"></path><path d="M1550.68 348.44L1410.43 250.93" stroke="hsl(228.5, 77.2%, 51.5%)" stroke-width="1.5"></path><path d="M1550.68 348.44L1286.54 382.4" stroke="hsl(228.5, 77.2%, 51.5%)" stroke-width="1.5"></path><path d="M1556.46 491.24L1556.46 491.24" stroke="hsl(228.5, 77.2%, 51.5%)" stroke-width="1.5"></path><path d="M1556.46 491.24L1427.55 373.13" stroke="hsl(228.5, 77.2%, 51.5%)" stroke-width="1.5"></path><path d="M1556.46 491.24L1556.44 674.77" stroke="hsl(228.5, 77.2%, 51.5%)" stroke-width="1.5"></path><path d="M1556.46 491.24L1405.69 710.93" stroke="hsl(228.5, 77.2%, 51.5%)" stroke-width="1.5"></path><path d="M1556.46 491.24L1290.99 523.57" stroke="hsl(228.5, 77.2%, 51.5%)" stroke-width="1.5"></path><path d="M1556.46 491.24L1410.43 250.93" stroke="hsl(228.5, 77.2%, 51.5%)" stroke-width="1.5"></path><path d="M89.35 689.67L89.35 689.67" stroke="hsl(228.5, 77.2%, 51.5%)" stroke-width="1.5"></path><path d="M89.35 689.67L207.64 666.55" stroke="hsl(228.5, 77.2%, 51.5%)" stroke-width="1.5"></path><path d="M207.64 666.55L207.64 666.55" stroke="hsl(228.5, 77.2%, 51.5%)" stroke-width="1.5"></path><path d="M369.69 527.59L369.69 527.59" stroke="hsl(228.5, 77.2%, 51.5%)" stroke-width="1.5"></path><path d="M369.69 527.59L517.12 491.31" stroke="hsl(228.5, 77.2%, 51.5%)" stroke-width="1.5"></path><path d="M369.69 527.59L524.26 410.83" stroke="hsl(228.5, 77.2%, 51.5%)" stroke-width="1.5"></path><path d="M369.69 527.59L540.78 638.7" stroke="hsl(228.5, 77.2%, 51.5%)" stroke-width="1.5"></path><path d="M369.69 527.59L207.64 666.55" stroke="hsl(228.5, 77.2%, 51.5%)" stroke-width="1.5"></path><path d="M524.26 410.83L524.26 410.83" stroke="hsl(228.5, 77.2%, 51.5%)" stroke-width="1.5"></path><path d="M524.26 410.83L517.12 491.31" stroke="hsl(228.5, 77.2%, 51.5%)" stroke-width="1.5"></path><path d="M524.26 410.83L677.4 411.83" stroke="hsl(228.5, 77.2%, 51.5%)" stroke-width="1.5"></path><path d="M524.26 410.83L677.09 526.14" stroke="hsl(228.5, 77.2%, 51.5%)" stroke-width="1.5"></path><path d="M517.12 491.31L517.12 491.31" stroke="hsl(228.5, 77.2%, 51.5%)" stroke-width="1.5"></path><path d="M517.12 491.31L540.78 638.7" stroke="hsl(228.5, 77.2%, 51.5%)" stroke-width="1.5"></path><path d="M517.12 491.31L677.4 411.83" stroke="hsl(228.5, 77.2%, 51.5%)" stroke-width="1.5"></path><path d="M540.78 638.7L540.78 638.7" stroke="hsl(228.5, 77.2%, 51.5%)" stroke-width="1.5"></path><path d="M540.78 638.7L661.96 657.55" stroke="hsl(228.5, 77.2%, 51.5%)" stroke-width="1.5"></path><path d="M677.4 411.83L677.4 411.83" stroke="hsl(228.5, 77.2%, 51.5%)" stroke-width="1.5"></path><path d="M677.4 411.83L804.08 410.57" stroke="hsl(228.5, 77.2%, 51.5%)" stroke-width="1.5"></path><path d="M677.4 411.83L821.31 544.75" stroke="hsl(228.5, 77.2%, 51.5%)" stroke-width="1.5"></path><path d="M677.4 411.83L661.96 657.55" stroke="hsl(228.5, 77.2%, 51.5%)" stroke-width="1.5"></path><path d="M661.96 657.55L661.96 657.55" stroke="hsl(228.5, 77.2%, 51.5%)" stroke-width="1.5"></path><path d="M661.96 657.55L838.04 638.11" stroke="hsl(228.5, 77.2%, 51.5%)" stroke-width="1.5"></path><path d="M661.96 657.55L821.31 544.75" stroke="hsl(228.5, 77.2%, 51.5%)" stroke-width="1.5"></path><path d="M804.08 410.57L804.08 410.57" stroke="hsl(228.5, 77.2%, 51.5%)" stroke-width="1.5"></path><path d="M804.08 410.57L821.31 544.75" stroke="hsl(228.5, 77.2%, 51.5%)" stroke-width="1.5"></path><path d="M804.08 410.57L976.48 390.36" stroke="hsl(228.5, 77.2%, 51.5%)" stroke-width="1.5"></path><path d="M804.08 410.57L939.8 525.85" stroke="hsl(228.5, 77.2%, 51.5%)" stroke-width="1.5"></path><path d="M804.08 410.57L838.04 638.11" stroke="hsl(228.5, 77.2%, 51.5%)" stroke-width="1.5"></path><path d="M821.31 544.75L821.31 544.75" stroke="hsl(228.5, 77.2%, 51.5%)" stroke-width="1.5"></path><path d="M821.31 544.75L838.04 638.11" stroke="hsl(228.5, 77.2%, 51.5%)" stroke-width="1.5"></path><path d="M821.31 544.75L939.8 525.85" stroke="hsl(228.5, 77.2%, 51.5%)" stroke-width="1.5"></path><path d="M838.04 638.11L838.04 638.11" stroke="hsl(228.5, 77.2%, 51.5%)" stroke-width="1.5"></path><path d="M838.04 638.11L939.68 638.67" stroke="hsl(228.5, 77.2%, 51.5%)" stroke-width="1.5"></path><path d="M838.04 638.11L939.8 525.85" stroke="hsl(228.5, 77.2%, 51.5%)" stroke-width="1.5"></path><path d="M838.04 638.11L677.09 526.14" stroke="hsl(228.5, 77.2%, 51.5%)" stroke-width="1.5"></path><path d="M997.4 254.89L997.4 254.89" stroke="hsl(228.5, 77.2%, 51.5%)" stroke-width="1.5"></path><path d="M997.4 254.89L976.48 390.36" stroke="hsl(228.5, 77.2%, 51.5%)" stroke-width="1.5"></path><path d="M997.4 254.89L1150.58 232.74" stroke="hsl(228.5, 77.2%, 51.5%)" stroke-width="1.5"></path><path d="M997.4 254.89L1134.29 344.9" stroke="hsl(228.5, 77.2%, 51.5%)" stroke-width="1.5"></path><path d="M976.48 390.36L976.48 390.36" stroke="hsl(228.5, 77.2%, 51.5%)" stroke-width="1.5"></path><path d="M976.48 390.36L939.8 525.85" stroke="hsl(228.5, 77.2%, 51.5%)" stroke-width="1.5"></path><path d="M976.48 390.36L1134.29 344.9" stroke="hsl(228.5, 77.2%, 51.5%)" stroke-width="1.5"></path><path d="M939.8 525.85L939.8 525.85" stroke="hsl(228.5, 77.2%, 51.5%)" stroke-width="1.5"></path><path d="M939.8 525.85L939.68 638.67" stroke="hsl(228.5, 77.2%, 51.5%)" stroke-width="1.5"></path><path d="M939.8 525.85L1133.97 515.44" stroke="hsl(228.5, 77.2%, 51.5%)" stroke-width="1.5"></path><path d="M939.68 638.67L939.68 638.67" stroke="hsl(228.5, 77.2%, 51.5%)" stroke-width="1.5"></path><path d="M1150.58 232.74L1150.58 232.74" stroke="hsl(228.5, 77.2%, 51.5%)" stroke-width="1.5"></path><path d="M1150.58 232.74L1259.29 259.01" stroke="hsl(228.5, 77.2%, 51.5%)" stroke-width="1.5"></path><path d="M1134.29 344.9L1134.29 344.9" stroke="hsl(228.5, 77.2%, 51.5%)" stroke-width="1.5"></path><path d="M1134.29 344.9L1150.58 232.74" stroke="hsl(228.5, 77.2%, 51.5%)" stroke-width="1.5"></path><path d="M1134.29 344.9L1259.29 259.01" stroke="hsl(228.5, 77.2%, 51.5%)" stroke-width="1.5"></path><path d="M1133.97 515.44L1133.97 515.44" stroke="hsl(228.5, 77.2%, 51.5%)" stroke-width="1.5"></path><path d="M1133.97 515.44L1134.29 344.9" stroke="hsl(228.5, 77.2%, 51.5%)" stroke-width="1.5"></path><path d="M1133.97 515.44L1150.53 688.57" stroke="hsl(228.5, 77.2%, 51.5%)" stroke-width="1.5"></path><path d="M1133.97 515.44L1261.15 659.54" stroke="hsl(228.5, 77.2%, 51.5%)" stroke-width="1.5"></path><path d="M1150.53 688.57L1150.53 688.57" stroke="hsl(228.5, 77.2%, 51.5%)" stroke-width="1.5"></path><path d="M1150.53 688.57L1261.15 659.54" stroke="hsl(228.5, 77.2%, 51.5%)" stroke-width="1.5"></path><path d="M1150.53 688.57L939.68 638.67" stroke="hsl(228.5, 77.2%, 51.5%)" stroke-width="1.5"></path><path d="M1150.53 688.57L1290.99 523.57" stroke="hsl(228.5, 77.2%, 51.5%)" stroke-width="1.5"></path><path d="M1150.53 688.57L1405.69 710.93" stroke="hsl(228.5, 77.2%, 51.5%)" stroke-width="1.5"></path><path d="M1150.53 688.57L939.8 525.85" stroke="hsl(228.5, 77.2%, 51.5%)" stroke-width="1.5"></path><path d="M1260.76 -48.05L1260.76 -48.05" stroke="hsl(228.5, 77.2%, 51.5%)" stroke-width="1.5"></path><path d="M1260.76 -48.05L1247.09 81.49" stroke="hsl(228.5, 77.2%, 51.5%)" stroke-width="1.5"></path><path d="M1260.76 -48.05L1455.5 79.22" stroke="hsl(228.5, 77.2%, 51.5%)" stroke-width="1.5"></path><path d="M1247.09 81.49L1247.09 81.49" stroke="hsl(228.5, 77.2%, 51.5%)" stroke-width="1.5"></path><path d="M1247.09 81.49L1259.29 259.01" stroke="hsl(228.5, 77.2%, 51.5%)" stroke-width="1.5"></path><path d="M1247.09 81.49L1150.58 232.74" stroke="hsl(228.5, 77.2%, 51.5%)" stroke-width="1.5"></path><path d="M1247.09 81.49L1455.5 79.22" stroke="hsl(228.5, 77.2%, 51.5%)" stroke-width="1.5"></path><path d="M1259.29 259.01L1259.29 259.01" stroke="hsl(228.5, 77.2%, 51.5%)" stroke-width="1.5"></path><path d="M1259.29 259.01L1286.54 382.4" stroke="hsl(228.5, 77.2%, 51.5%)" stroke-width="1.5"></path><path d="M1259.29 259.01L1410.43 250.93" stroke="hsl(228.5, 77.2%, 51.5%)" stroke-width="1.5"></path><path d="M1286.54 382.4L1286.54 382.4" stroke="hsl(228.5, 77.2%, 51.5%)" stroke-width="1.5"></path><path d="M1286.54 382.4L1427.55 373.13" stroke="hsl(228.5, 77.2%, 51.5%)" stroke-width="1.5"></path><path d="M1286.54 382.4L1134.29 344.9" stroke="hsl(228.5, 77.2%, 51.5%)" stroke-width="1.5"></path><path d="M1261.15 659.54L1261.15 659.54" stroke="hsl(228.5, 77.2%, 51.5%)" stroke-width="1.5"></path><path d="M1455.5 79.22L1455.5 79.22" stroke="hsl(228.5, 77.2%, 51.5%)" stroke-width="1.5"></path><path d="M1455.5 79.22L1594.94 58.56" stroke="hsl(228.5, 77.2%, 51.5%)" stroke-width="1.5"></path><path d="M1455.5 79.22L1410.43 250.93" stroke="hsl(228.5, 77.2%, 51.5%)" stroke-width="1.5"></path><path d="M1455.5 79.22L1612.24 214.75" stroke="hsl(228.5, 77.2%, 51.5%)" stroke-width="1.5"></path><path d="M1455.5 79.22L1578.92 -91.65" stroke="hsl(228.5, 77.2%, 51.5%)" stroke-width="1.5"></path><path d="M1410.43 250.93L1410.43 250.93" stroke="hsl(228.5, 77.2%, 51.5%)" stroke-width="1.5"></path><path d="M1410.43 250.93L1427.55 373.13" stroke="hsl(228.5, 77.2%, 51.5%)" stroke-width="1.5"></path><path d="M1410.43 250.93L1286.54 382.4" stroke="hsl(228.5, 77.2%, 51.5%)" stroke-width="1.5"></path><path d="M1427.55 373.13L1427.55 373.13" stroke="hsl(228.5, 77.2%, 51.5%)" stroke-width="1.5"></path><path d="M1405.69 710.93L1405.69 710.93" stroke="hsl(228.5, 77.2%, 51.5%)" stroke-width="1.5"></path><path d="M1405.69 710.93L1261.15 659.54" stroke="hsl(228.5, 77.2%, 51.5%)" stroke-width="1.5"></path><path d="M1405.69 710.93L1556.44 674.77" stroke="hsl(228.5, 77.2%, 51.5%)" stroke-width="1.5"></path><path d="M1405.69 710.93L1290.99 523.57" stroke="hsl(228.5, 77.2%, 51.5%)" stroke-width="1.5"></path><path d="M1578.92 -91.65L1578.92 -91.65" stroke="hsl(228.5, 77.2%, 51.5%)" stroke-width="1.5"></path><path d="M1578.92 -91.65L1594.94 58.56" stroke="hsl(228.5, 77.2%, 51.5%)" stroke-width="1.5"></path><path d="M1594.94 58.56L1594.94 58.56" stroke="hsl(228.5, 77.2%, 51.5%)" stroke-width="1.5"></path><path d="M1594.94 58.56L1612.24 214.75" stroke="hsl(228.5, 77.2%, 51.5%)" stroke-width="1.5"></path><path d="M1594.94 58.56L1410.43 250.93" stroke="hsl(228.5, 77.2%, 51.5%)" stroke-width="1.5"></path><path d="M1594.94 58.56L1550.68 348.44" stroke="hsl(228.5, 77.2%, 51.5%)" stroke-width="1.5"></path><path d="M1594.94 58.56L1247.09 81.49" stroke="hsl(228.5, 77.2%, 51.5%)" stroke-width="1.5"></path><path d="M1612.24 214.75L1612.24 214.75" stroke="hsl(228.5, 77.2%, 51.5%)" stroke-width="1.5"></path><path d="M1612.24 214.75L1410.43 250.93" stroke="hsl(228.5, 77.2%, 51.5%)" stroke-width="1.5"></path><path d="M1612.24 214.75L1427.55 373.13" stroke="hsl(228.5, 77.2%, 51.5%)" stroke-width="1.5"></path><path d="M1612.24 214.75L1556.46 491.24" stroke="hsl(228.5, 77.2%, 51.5%)" stroke-width="1.5"></path><path d="M1556.44 674.77L1556.44 674.77" stroke="hsl(228.5, 77.2%, 51.5%)" stroke-width="1.5"></path><path d="M1556.44 674.77L1261.15 659.54" stroke="hsl(228.5, 77.2%, 51.5%)" stroke-width="1.5"></path><path d="M1556.44 674.77L1290.99 523.57" stroke="hsl(228.5, 77.2%, 51.5%)" stroke-width="1.5"></path><circle r="25" cx="-50.07" cy="532.73" fill="url(&quot;#SvgjsRadialGradient1511&quot;)"></circle><circle r="25" cx="-94.56" cy="688.26" fill="url(&quot;#SvgjsRadialGradient1511&quot;)"></circle><circle r="25" cx="40.95" cy="527.57" fill="url(&quot;#SvgjsRadialGradient1511&quot;)"></circle><circle r="25" cx="251.92" cy="539.96" fill="url(&quot;#SvgjsRadialGradient1511&quot;)"></circle><circle r="25" cx="343.42" cy="663.86" fill="url(&quot;#SvgjsRadialGradient1511&quot;)"></circle><circle r="25" cx="677.09" cy="526.14" fill="url(&quot;#SvgjsRadialGradient1511&quot;)"></circle><circle r="25" cx="1290.99" cy="523.57" fill="url(&quot;#SvgjsRadialGradient1511&quot;)"></circle><circle r="25" cx="1550.68" cy="348.44" fill="url(&quot;#SvgjsRadialGradient1511&quot;)"></circle><circle r="25" cx="1556.46" cy="491.24" fill="url(&quot;#SvgjsRadialGradient1511&quot;)"></circle><circle r="5" cx="89.35" cy="689.67" fill="#8b9ad9"></circle><circle r="5" cx="207.64" cy="666.55" fill="#8b9ad9"></circle><circle r="5" cx="369.69" cy="527.59" fill="#8b9ad9"></circle><circle r="5" cx="524.26" cy="410.83" fill="#8b9ad9"></circle><circle r="5" cx="517.12" cy="491.31" fill="#8b9ad9"></circle><circle r="5" cx="540.78" cy="638.7" fill="#8b9ad9"></circle><circle r="5" cx="677.4" cy="411.83" fill="#8b9ad9"></circle><circle r="5" cx="661.96" cy="657.55" fill="#8b9ad9"></circle><circle r="5" cx="804.08" cy="410.57" fill="#8b9ad9"></circle><circle r="5" cx="821.31" cy="544.75" fill="#8b9ad9"></circle><circle r="5" cx="838.04" cy="638.11" fill="#8b9ad9"></circle><circle r="5" cx="997.4" cy="254.89" fill="#8b9ad9"></circle><circle r="5" cx="976.48" cy="390.36" fill="#8b9ad9"></circle><circle r="5" cx="939.8" cy="525.85" fill="#8b9ad9"></circle><circle r="5" cx="939.68" cy="638.67" fill="#8b9ad9"></circle><circle r="5" cx="1150.58" cy="232.74" fill="#8b9ad9"></circle><circle r="5" cx="1134.29" cy="344.9" fill="#8b9ad9"></circle><circle r="5" cx="1133.97" cy="515.44" fill="#8b9ad9"></circle><circle r="5" cx="1150.53" cy="688.57" fill="#8b9ad9"></circle><circle r="5" cx="1260.76" cy="-48.05" fill="#8b9ad9"></circle><circle r="5" cx="1247.09" cy="81.49" fill="#8b9ad9"></circle><circle r="5" cx="1259.29" cy="259.01" fill="#8b9ad9"></circle><circle r="5" cx="1286.54" cy="382.4" fill="#8b9ad9"></circle><circle r="5" cx="1261.15" cy="659.54" fill="#8b9ad9"></circle><circle r="5" cx="1455.5" cy="79.22" fill="#8b9ad9"></circle><circle r="5" cx="1410.43" cy="250.93" fill="#8b9ad9"></circle><circle r="5" cx="1427.55" cy="373.13" fill="#8b9ad9"></circle><circle r="5" cx="1405.69" cy="710.93" fill="#8b9ad9"></circle><circle r="5" cx="1578.92" cy="-91.65" fill="#8b9ad9"></circle><circle r="5" cx="1594.94" cy="58.56" fill="#8b9ad9"></circle><circle r="5" cx="1612.24" cy="214.75" fill="#8b9ad9"></circle><circle r="5" cx="1556.44" cy="674.77" fill="#8b9ad9"></circle></g><defs><mask id="SvgjsMask1509"><rect width="1440" height="560" fill="#ffffff"></rect></mask><linearGradient x1="84.72%" y1="-39.29%" x2="15.28%" y2="139.29%" gradientUnits="userSpaceOnUse" id="SvgjsLinearGradient1510"><stop stop-color="rgba(15, 71, 130, 0.88)" offset="0.07"></stop><stop stop-color="rgba(20, 76, 204, 0)" offset="1"></stop></linearGradient><radialGradient id="SvgjsRadialGradient1511"><stop stop-color="#ffffff" offset="0.1"></stop><stop stop-color="#1735b3" offset="0.2"></stop><stop stop-color="rgba(23, 53, 179, 0)" offset="1"></stop></radialGradient></defs></svg>